<svg width="21" height="17" viewBox="0 0 21 17" version="1.1" xmlns="http://www.w3.org/2000/svg" xmlns:xlink="http://www.w3.org/1999/xlink">
<g id="Canvas" fill="none">
<g id="&#239;&#134;&#185;">
<path d="M 4.82143 10.5C 4.82143 11.3839 4.09821 12.1071 3.21429 12.1071C 2.33036 12.1071 1.60714 11.3839 1.60714 10.5C 1.60714 9.61607 2.33036 8.89286 3.21429 8.89286C 4.09821 8.89286 4.82143 9.61607 4.82143 10.5ZM 5.18304 7.28571L 6.07701 3.69978C 6.10714 3.58929 6.30804 3.42857 6.42857 3.42857L 14.1429 3.42857C 14.2634 3.42857 14.4643 3.58929 14.4944 3.69978L 15.3884 7.28571L 5.18304 7.28571ZM 18.9643 10.5C 18.9643 11.3839 18.2411 12.1071 17.3571 12.1071C 16.4732 12.1071 15.75 11.3839 15.75 10.5C 15.75 9.61607 16.4732 8.89286 17.3571 8.89286C 18.2411 8.89286 18.9643 9.61607 18.9643 10.5ZM 20.5714 9.53571C 20.5714 8.29018 19.567 7.28571 18.3214 7.28571L 18.0402 7.28571L 16.9855 3.07701C 16.6741 1.81138 15.4487 0.857143 14.1429 0.857143L 6.42857 0.857143C 5.12277 0.857143 3.89732 1.81138 3.58594 3.07701L 2.53125 7.28571L 2.25 7.28571C 1.00446 7.28571 0 8.29018 0 9.53571L 0 13.3929C 0 13.5737 0.140625 13.7143 0.321429 13.7143L 1.28571 13.7143L 1.28571 15C 1.28571 16.0647 2.14955 16.9286 3.21429 16.9286C 4.27902 16.9286 5.14286 16.0647 5.14286 15L 5.14286 13.7143L 15.4286 13.7143L 15.4286 15C 15.4286 16.0647 16.2924 16.9286 17.3571 16.9286C 18.4219 16.9286 19.2857 16.0647 19.2857 15L 19.2857 13.7143L 20.25 13.7143C 20.4308 13.7143 20.5714 13.5737 20.5714 13.3929L 20.5714 9.53571Z" fill="white"/>
</g>
</g>
</svg>

