<?xml version="1.0" encoding="UTF-8"?>
<!DOCTYPE svg PUBLIC "-//W3C//DTD SVG 1.1//EN" "http://www.w3.org/Graphics/SVG/1.1/DTD/svg11.dtd">
<!-- Creator: CorelDRAW 2017 -->
<svg xmlns="http://www.w3.org/2000/svg" xml:space="preserve" width="100%" height="100%" version="1.1" style="shape-rendering:geometricPrecision; text-rendering:geometricPrecision; image-rendering:optimizeQuality; fill-rule:evenodd; clip-rule:evenodd"
viewBox="0 0 41672 47625"
 xmlns:xlink="http://www.w3.org/1999/xlink">
 <defs>
  <style type="text/css">
   <![CDATA[
    .fil0 {fill:black}
   ]]>
  </style>
 </defs>
 <g id="Слой_x0020_1">
  <metadata id="CorelCorpID_0Corel-Layer"/>
  <path class="fil0" d="M17859 17487c0,-279 -186,-558 -372,-744 -186,-186 -465,-372 -744,-372l-2232 0c-372,0 -651,186 -837,372 -186,186 -279,465 -279,744l0 20092c0,372 93,651 279,837 186,186 465,279 837,279l2232 0c279,0 558,-93 744,-279 186,-186 372,-465 372,-837l0 -20092zm9302 -1116c279,0 558,186 744,372 186,186 372,465 372,744l0 20092c0,372 -186,651 -372,837 -186,186 -465,279 -744,279l-2232 0c-372,0 -651,-93 -837,-279 -186,-186 -279,-465 -279,-837l0 -20092c0,-279 93,-558 279,-744 186,-186 465,-372 837,-372l2232 0zm12278 -8930l-6883 0 -3162 -5302c-466,-651 -1024,-1209 -1675,-1581 -744,-372 -1488,-558 -2232,-558l-9302 0c-837,0 -1581,186 -2232,558 -744,372 -1303,930 -1675,1581l-3162 5302 -6884 0c-651,0 -1209,280 -1581,652 -465,465 -651,1023 -651,1581l0 1116c0,372 93,651 279,837 186,186 465,279 837,279l1861 0 0 31254c0,1302 372,2326 1302,3163 837,930 1860,1302 3162,1302l26789 0c1210,0 2233,-372 3163,-1302 837,-837 1302,-1861 1302,-3163l0 -31254 1861 0c279,0 558,-93 744,-279 186,-186 372,-465 372,-837l0 -1116c0,-558 -279,-1116 -651,-1581 -465,-372 -1023,-652 -1582,-652zm-25114 0l1674 -2697c93,-186 279,-279 465,-279l8744 0c186,0 279,93 465,279l1674 2697 -13022 0zm19905 4465l0 30696c0,186 -93,279 -186,372 -186,186 -279,186 -372,186l-25673 0c-186,0 -278,0 -372,-186 -186,-93 -186,-186 -186,-372l0 -30696 26789 0z"/>
 </g>
</svg>
