<?xml version="1.0" encoding="UTF-8"?>
<!DOCTYPE svg PUBLIC "-//W3C//DTD SVG 1.1//EN" "http://www.w3.org/Graphics/SVG/1.1/DTD/svg11.dtd">
<!-- Creator: CorelDRAW 2017 -->
<svg xmlns="http://www.w3.org/2000/svg" xml:space="preserve" width="100%" height="100%" version="1.1" style="shape-rendering:geometricPrecision; text-rendering:geometricPrecision; image-rendering:optimizeQuality; fill-rule:evenodd; clip-rule:evenodd"
viewBox="0 0 44223 40822"
 xmlns:xlink="http://www.w3.org/1999/xlink">
 <defs>
  <style type="text/css">
   <![CDATA[
    .fil0 {fill:black}
   ]]>
  </style>
 </defs>
 <g id="Слой_x0020_1">
  <metadata id="CorelCorpID_0Corel-Layer"/>
  <path class="fil0" d="M34018 35719c0,930 -771,1701 -1701,1701 -930,0 -1701,-771 -1701,-1701 0,-930 771,-1701 1701,-1701 930,0 1701,771 1701,1701zm6803 0c0,930 -770,1701 -1701,1701 -930,0 -1700,-771 -1700,-1701 0,-930 770,-1701 1700,-1701 931,0 1701,771 1701,1701zm3402 -5953c0,-1408 -1143,-2551 -2551,-2551l-12332 0 -3614 3614c-983,957 -2259,1488 -3614,1488 -1356,0 -2632,-531 -3615,-1488l-3588 -3614 -12358 0c-1408,0 -2551,1143 -2551,2551l0 8505c0,1408 1143,2551 2551,2551l39121 0c1408,0 2551,-1143 2551,-2551l0 -8505zm-8637 -15122c-266,-611 -877,-1036 -1568,-1036l-6804 0 0 -11907c0,-930 -771,-1701 -1701,-1701l-6803 0c-930,0 -1701,771 -1701,1701l0 11907 -6804 0c-691,0 -1302,425 -1568,1036 -266,638 -133,1382 372,1861l11907 11906c319,345 770,505 1196,505 425,0 877,-160 1195,-505l11907 -11906c505,-479 637,-1223 372,-1861z"/>
 </g>
</svg>
