<svg width="21" height="19" viewBox="0 0 21 19" version="1.1" xmlns="http://www.w3.org/2000/svg" xmlns:xlink="http://www.w3.org/1999/xlink">
<g id="Canvas" fill="none">
<g id="&#239;&#129;&#132;">
<path d="M 25.5078 18.3789C 25.4375 18.4492 25.4375 18.4844 25.4375 18.5547L 25.4375 22.5625L 13.0625 22.5625L 13.0625 10.1875L 21.5703 10.1875C 21.6406 10.1875 21.6758 10.1875 21.7461 10.1172L 22.8711 8.99219C 22.9414 8.92188 22.9766 8.81641 22.9414 8.67578C 22.8711 8.57031 22.8008 8.5 22.6953 8.5L 13.0625 8.5C 12.5703 8.5 12.1836 8.67578 11.8672 8.99219C 11.5156 9.34375 11.375 9.73047 11.375 10.1875L 11.375 22.5625C 11.375 23.0547 11.5156 23.4414 11.8672 23.7578C 12.1836 24.1094 12.5703 24.25 13.0625 24.25L 25.4375 24.25C 25.8945 24.25 26.2812 24.1094 26.6328 23.7578C 26.9492 23.4414 27.125 23.0547 27.125 22.5625L 27.125 17.4648C 27.125 17.3242 27.0547 17.2539 26.9492 17.1836C 26.8086 17.1484 26.7031 17.1836 26.6328 17.2539L 25.5078 18.3789ZM 31.0273 11.2773C 31.4141 10.8906 31.625 10.3984 31.625 9.83594C 31.625 9.27344 31.4141 8.78125 31.0273 8.35938L 29.5156 6.84766C 29.0938 6.46094 28.6016 6.25 28.0391 6.25C 27.4766 6.25 26.9844 6.46094 26.5977 6.84766L 17.3516 16.0938L 17 19.2578C 16.9297 19.75 17.0703 20.1367 17.4219 20.4531C 17.7383 20.8047 18.125 20.9453 18.6172 20.875L 21.7812 20.5234L 31.0273 11.2773ZM 27.5469 12.3672L 21.0078 18.9062L 18.7227 19.1523L 18.9688 16.8672L 25.5078 10.3281L 27.5469 12.3672ZM 29.832 9.55469C 29.9023 9.625 29.9375 9.73047 29.9375 9.83594C 29.9375 9.94141 29.9023 10.0117 29.832 10.082L 28.7422 11.1719L 26.7031 9.13281L 27.793 8.04297C 27.8633 7.97266 27.9336 7.9375 28.0391 7.9375C 28.1445 7.9375 28.25 7.97266 28.3203 8.04297L 29.832 9.55469Z" transform="translate(-11 -6)" fill="black" fill-opacity="0.8"/>
</g>
</g>
</svg>

