<?xml version="1.0" encoding="UTF-8"?>
<!DOCTYPE svg PUBLIC "-//W3C//DTD SVG 1.1//EN" "http://www.w3.org/Graphics/SVG/1.1/DTD/svg11.dtd">
<!-- Creator: CorelDRAW 2017 -->
<svg xmlns="http://www.w3.org/2000/svg" xml:space="preserve" width="100%" height="100%" version="1.1" style="shape-rendering:geometricPrecision; text-rendering:geometricPrecision; image-rendering:optimizeQuality; fill-rule:evenodd; clip-rule:evenodd"
viewBox="0 0 53578 47625"
 xmlns:xlink="http://www.w3.org/1999/xlink">
 <defs>
  <style type="text/css">
   <![CDATA[
    .fil0 {fill:black}
   ]]>
  </style>
 </defs>
 <g id="Слой_x0020_1">
  <metadata id="CorelCorpID_0Corel-Layer"/>
  <path class="fil0" d="M37393 32091c-186,186 -186,279 -186,465l0 10604 -32742 0 0 -32742 22511 0c186,0 278,0 464,-186l2977 -2977c186,-186 279,-465 186,-837 -186,-279 -372,-465 -651,-465l-25487 0c-1302,0 -2325,465 -3163,1302 -930,931 -1302,1954 -1302,3163l0 32742c0,1302 372,2326 1302,3163 838,930 1861,1302 3163,1302l32742 0c1210,0 2233,-372 3163,-1302 837,-837 1302,-1861 1302,-3163l0 -13487c0,-372 -186,-558 -465,-744 -372,-94 -651,0 -837,186l-2977 2976zm14604 -18790c1023,-1023 1581,-2325 1581,-3813 0,-1489 -558,-2791 -1581,-3907l-4000 -4000c-1116,-1023 -2418,-1581 -3906,-1581 -1489,0 -2791,558 -3814,1581l-24464 24464 -930 8372c-186,1302 186,2325 1116,3162 837,930 1861,1302 3163,1116l8372 -930 24463 -24464zm-9209 2884l-17301 17301 -6046 651 651 -6046 17301 -17301 5395 5395zm6047 -7441c186,186 278,465 278,744 0,279 -92,465 -278,651l-2884 2884 -5395 -5396 2883 -2883c186,-186 372,-279 652,-279 279,0 558,93 744,279l4000 4000z"/>
 </g>
</svg>
