<svg width="15" height="15" viewBox="0 0 15 15" version="1.1" xmlns="http://www.w3.org/2000/svg" xmlns:xlink="http://www.w3.org/1999/xlink">
<g id="Canvas" fill="none">
<g id="&#239;&#132;&#164;">
<path d="M 28.4973 10.077C 28.6279 9.82589 28.5777 9.52455 28.3768 9.33371C 28.2563 9.20312 28.0956 9.14286 27.9248 9.14286C 27.8244 9.14286 27.7239 9.16295 27.6335 9.21317L 14.7764 15.6417C 14.5152 15.7723 14.3746 16.0737 14.4449 16.365C 14.5152 16.6562 14.7663 16.8571 15.0677 16.8571L 20.8534 16.8571L 20.8534 22.6429C 20.8534 22.9442 21.0543 23.1953 21.3456 23.2656C 21.3958 23.2757 21.446 23.2857 21.4962 23.2857C 21.7373 23.2857 21.9583 23.1551 22.0688 22.9342L 28.4973 10.077Z" transform="translate(-14 -9)" fill="white"/>
</g>
</g>
</svg>

