<svg width="18" height="19" viewBox="0 0 18 19" version="1.1" xmlns="http://www.w3.org/2000/svg" xmlns:xlink="http://www.w3.org/1999/xlink">
<g id="Canvas" fill="none">
<g id="&#239;&#137;&#185;">
<path d="M 5.14286 -0.428572C 5.09263 -0.428572 5.04241 -0.418527 4.99219 -0.388393L 0.170759 2.18304C 0.0703125 2.23326 0 2.34375 0 2.46429L 0 17.25C 0 17.4208 0.15067 17.5714 0.321429 17.5714C 0.371652 17.5714 0.421875 17.5614 0.472098 17.5312L 5.29353 14.9598C 5.39397 14.9096 5.46429 14.7991 5.46429 14.6786L 5.46429 -0.107143C 5.46429 -0.277902 5.31362 -0.428572 5.14286 -0.428572ZM 17.6786 -0.428572C 17.6283 -0.428572 17.5781 -0.418527 17.5279 -0.388393L 12.7065 2.18304C 12.606 2.23326 12.5357 2.34375 12.5357 2.46429L 12.5357 17.25C 12.5357 17.4208 12.6864 17.5714 12.8571 17.5714C 12.9074 17.5714 12.9576 17.5614 13.0078 17.5312L 17.8292 14.9598C 17.9297 14.9096 18 14.7991 18 14.6786L 18 -0.107143C 18 -0.277902 17.8493 -0.428572 17.6786 -0.428572ZM 6.42857 -0.428572C 6.25781 -0.428572 6.10714 -0.277902 6.10714 -0.107143L 6.10714 14.6786C 6.10714 14.7991 6.17746 14.9096 6.28795 14.9699L 11.4308 17.5413C 11.471 17.5614 11.5212 17.5714 11.5714 17.5714C 11.7422 17.5714 11.8929 17.4208 11.8929 17.25L 11.8929 2.46429C 11.8929 2.34375 11.8225 2.23326 11.7121 2.17299L 6.5692 -0.398438C 6.52902 -0.418527 6.47879 -0.428572 6.42857 -0.428572Z" transform="translate(0 1)" fill="white"/>
</g>
</g>
</svg>

