<svg width="16" height="17" viewBox="0 0 16 17" version="1.1" xmlns="http://www.w3.org/2000/svg" xmlns:xlink="http://www.w3.org/1999/xlink">
<g id="Canvas" fill="none">
<g id="&#239;&#129;&#152;">
<path d="M 12.8973 6.9442C 12.8973 7.11496 12.8371 7.27567 12.7165 7.39621L 7.26228 12.8504C 7.14174 12.971 6.97098 13.0413 6.80022 13.0413C 6.63951 13.0413 6.46875 12.971 6.34821 12.8504L 2.71205 9.21429C 2.59152 9.09375 2.53125 8.93304 2.53125 8.76228C 2.53125 8.59152 2.59152 8.42076 2.71205 8.30022L 3.62612 7.39621C 3.74665 7.27567 3.90737 7.20536 4.07812 7.20536C 4.24888 7.20536 4.4096 7.27567 4.53013 7.39621L 6.80022 9.66629L 10.8984 5.57812C 11.019 5.45759 11.1797 5.38728 11.3504 5.38728C 11.5212 5.38728 11.6819 5.45759 11.8025 5.57812L 12.7165 6.48214C 12.8371 6.60268 12.8973 6.77344 12.8973 6.9442ZM 15.4286 8.57143C 15.4286 4.3125 11.9732 0.857143 7.71429 0.857143C 3.45536 0.857143 0 4.3125 0 8.57143C 0 12.8304 3.45536 16.2857 7.71429 16.2857C 11.9732 16.2857 15.4286 12.8304 15.4286 8.57143Z" fill="white"/>
</g>
</g>
</svg>

