<svg width="16" height="15" viewBox="0 0 16 15" version="1.1" xmlns="http://www.w3.org/2000/svg" xmlns:xlink="http://www.w3.org/1999/xlink">
<g id="Canvas" fill="none">
<g id="&#239;&#135;&#158;">
<path d="M 3.53571 13.7143L 0 13.7143L 0 15L 3.53571 15L 3.53571 13.7143ZM 7.07143 12.4286L 4.5 12.4286C 4.14844 12.4286 3.85714 12.7199 3.85714 13.0714L 3.85714 15.6429C 3.85714 15.9944 4.14844 16.2857 4.5 16.2857L 7.07143 16.2857C 7.42299 16.2857 7.71429 15.9944 7.71429 15.6429L 7.71429 13.0714C 7.71429 12.7199 7.42299 12.4286 7.07143 12.4286ZM 8.67857 8.57143L 0 8.57143L 0 9.85714L 8.67857 9.85714L 8.67857 8.57143ZM 2.25 3.42857L 0 3.42857L 0 4.71429L 2.25 4.71429L 2.25 3.42857ZM 15.4286 13.7143L 8.03571 13.7143L 8.03571 15L 15.4286 15L 15.4286 13.7143ZM 5.78571 2.14286L 3.21429 2.14286C 2.86272 2.14286 2.57143 2.43415 2.57143 2.78571L 2.57143 5.35714C 2.57143 5.70871 2.86272 6 3.21429 6L 5.78571 6C 6.13728 6 6.42857 5.70871 6.42857 5.35714L 6.42857 2.78571C 6.42857 2.43415 6.13728 2.14286 5.78571 2.14286ZM 12.2143 7.28571L 9.64286 7.28571C 9.29129 7.28571 9 7.57701 9 7.92857L 9 10.5C 9 10.8516 9.29129 11.1429 9.64286 11.1429L 12.2143 11.1429C 12.5658 11.1429 12.8571 10.8516 12.8571 10.5L 12.8571 7.92857C 12.8571 7.57701 12.5658 7.28571 12.2143 7.28571ZM 15.4286 8.57143L 13.1786 8.57143L 13.1786 9.85714L 15.4286 9.85714L 15.4286 8.57143ZM 15.4286 3.42857L 6.75 3.42857L 6.75 4.71429L 15.4286 4.71429L 15.4286 3.42857Z" transform="translate(0 -2)" fill="white"/>
</g>
</g>
</svg>

