<svg width="20" height="29" viewBox="0 0 20 29" version="1.1" xmlns="http://www.w3.org/2000/svg" xmlns:xlink="http://www.w3.org/1999/xlink">
<g id="Canvas" fill="none">
<g id="&#239;&#134;&#174;">
<path d="M 22.1804 6.45982C 22.7998 5.82366 22.7998 4.8192 22.1804 4.18304C 21.5442 3.56362 20.5398 3.56362 19.9036 4.18304L 16.0866 8L 9.92592 8L 6.10896 4.18304C 5.4728 3.56362 4.46833 3.56362 3.83217 4.18304C 3.21275 4.8192 3.21275 5.82366 3.83217 6.45982L 8.72056 11.3482L 8.72056 25.1429C 8.72056 26.1808 9.55762 27.0179 10.5956 27.0179C 11.6335 27.0179 12.4706 26.1808 12.4706 25.1429L 12.4706 18.7143L 13.542 18.7143L 13.542 25.1429C 13.542 26.1808 14.379 27.0179 15.417 27.0179C 16.4549 27.0179 17.292 26.1808 17.292 25.1429L 17.292 11.3482L 22.1804 6.45982ZM 16.7563 3.71429C 16.7563 1.63839 15.0822 -0.035714 13.0063 -0.035714C 10.9304 -0.035714 9.25628 1.63839 9.25628 3.71429C 9.25628 5.79018 10.9304 7.46429 13.0063 7.46429C 15.0822 7.46429 16.7563 5.79018 16.7563 3.71429Z" transform="translate(-3 1)" fill="#062140"/>
</g>
</g>
</svg>

