<svg width="13" height="17" viewBox="0 0 13 17" version="1.1" xmlns="http://www.w3.org/2000/svg" xmlns:xlink="http://www.w3.org/1999/xlink">
<g id="Canvas" fill="none">
<g id="&#239;&#128;&#135;">
<path d="M 12.8571 13.6239C 12.8571 10.9821 12.2042 7.92857 9.57254 7.92857C 8.75893 8.7221 7.65402 9.21429 6.42857 9.21429C 5.20312 9.21429 4.09821 8.7221 3.2846 7.92857C 0.652902 7.92857 0 10.9821 0 13.6239C 0 15.0904 0.964286 16.2857 2.13951 16.2857L 10.7176 16.2857C 11.8929 16.2857 12.8571 15.0904 12.8571 13.6239ZM 10.2857 4.71429C 10.2857 2.58482 8.55804 0.857143 6.42857 0.857143C 4.29911 0.857143 2.57143 2.58482 2.57143 4.71429C 2.57143 6.84375 4.29911 8.57143 6.42857 8.57143C 8.55804 8.57143 10.2857 6.84375 10.2857 4.71429Z" fill="white"/>
</g>
</g>
</svg>

